<?xml version="1.0" encoding="UTF-8"?>
<svg id="a" xmlns="http://www.w3.org/2000/svg" viewBox="0 0 64 64">
  <rect x="7.6157" y="54.5" width="52.3833" height="1" rx=".1359" ry=".1359"
    style="fill:none; stroke:#e2e2e2; stroke-miterlimit:10; stroke-width:3px;" />
  <path
    d="m15.5977,50.7502c-3.2676,0-5.8501-.9248-7.75-2.7754-1.9004-1.8496-2.8501-4.375-2.8501-7.5752v-16.7998c0-3.2002.9497-5.7251,2.8501-7.5752,1.8999-1.8501,4.4824-2.7749,7.75-2.7749,3.1997,0,5.7578.9424,7.6748,2.8252,1.9165,1.8833,2.875,4.4419,2.875,7.6748h-3.9502c0-2.2002-.5918-3.9077-1.7749-5.125-1.1836-1.2163-2.792-1.8252-4.8247-1.8252-2.1001,0-3.7339.5923-4.9004,1.7754-1.167,1.1836-1.75,2.8584-1.75,5.0249v16.7998c0,2.168.583,3.8428,1.75,5.0254,1.1665,1.1836,2.8003,1.7754,4.9004,1.7754,2.0664,0,3.6826-.6084,4.8496-1.8252,1.1665-1.2168,1.75-2.9248,1.75-5.125h3.9502c0,3.2334-.9585,5.792-2.875,7.6748-1.917,1.8838-4.4751,2.8252-7.6748,2.8252Z"
    style="fill:#e2e2e2;" />
  <path
    d="m30.0122,32.3804v-1.728h3.6235v-14.064h-3.6235v-1.728h9.1675v1.728h-3.6006v14.064h3.6006v1.728h-9.1675Z"
    style="fill:#e2e2e2;" />
  <path d="m44.3877,32.3804V14.8604h1.8955v15.792h8.0879v1.728h-9.9834Z" style="fill:#e2e2e2;" />
  <path
    d="m58.0391,32.8604c-.5762,0-1.0391-.1724-1.3926-.5161-.3516-.3442-.5273-.7959-.5273-1.356s.1758-1.02.5273-1.3804c.3535-.3599.8164-.5396,1.3926-.5396s1.041.1797,1.3926.5396c.3516.3604.5273.8203.5273,1.3804s-.1758,1.0117-.5273,1.356c-.3516.3438-.8164.5161-1.3926.5161Z"
    style="fill:#e2e2e2;" />
</svg>